<?xml version="1.0" standalone="no"?>
<!DOCTYPE svg PUBLIC "-//W3C//DTD SVG 20010904//EN"
 "http://www.w3.org/TR/2001/REC-SVG-20010904/DTD/svg10.dtd">
<svg version="1.0" xmlns="http://www.w3.org/2000/svg"
 width="672.000000pt" height="896.000000pt" viewBox="0 0 672.000000 896.000000"
 preserveAspectRatio="xMidYMid meet">
<metadata>
Created by potrace 1.16, written by Peter Selinger 2001-2019
</metadata>
<g transform="translate(0.000000,896.000000) scale(0.100000,-0.100000)"
fill="#000000" stroke="none">
<path d="M2905 8809 c-33 -4 -81 -5 -107 -2 -26 3 -107 0 -180 -8 -73 -7 -137
-12 -142 -11 -13 4 -136 -39 -136 -47 0 -5 -37 -11 -82 -14 -52 -4 -95 -14
-121 -27 -22 -12 -62 -25 -89 -30 -27 -6 -61 -19 -75 -30 -14 -11 -35 -20 -47
-20 -11 0 -41 -14 -65 -30 -24 -17 -54 -30 -66 -30 -13 0 -28 -7 -35 -15 -6
-8 -33 -26 -58 -41 -26 -15 -61 -41 -79 -58 -43 -43 -92 -80 -129 -99 -16 -9
-52 -35 -80 -59 -27 -24 -70 -56 -96 -71 -26 -15 -52 -36 -57 -46 -6 -10 -26
-29 -45 -42 -20 -13 -39 -32 -42 -41 -3 -10 -21 -32 -40 -50 -40 -37 -141
-159 -170 -204 -10 -16 -33 -46 -51 -67 -18 -20 -33 -44 -33 -52 0 -8 -9 -19
-20 -25 -11 -6 -30 -30 -41 -53 -12 -23 -32 -53 -45 -66 -13 -13 -24 -32 -24
-42 0 -11 -4 -19 -10 -19 -5 0 -25 -31 -45 -69 -19 -38 -39 -72 -45 -76 -5 -3
-10 -15 -10 -25 0 -10 -11 -31 -24 -47 -13 -15 -26 -38 -30 -50 -4 -11 -13
-27 -21 -33 -8 -7 -15 -20 -15 -30 0 -10 -7 -21 -16 -24 -9 -3 -14 -13 -10
-21 3 -8 1 -17 -3 -20 -5 -2 -12 -17 -15 -32 -8 -31 -43 -128 -57 -155 -5 -10
-13 -37 -19 -60 -6 -24 -12 -47 -14 -53 -2 -5 -6 -23 -10 -40 -4 -16 -14 -52
-22 -80 -7 -27 -16 -87 -18 -131 -2 -45 -6 -86 -10 -92 -12 -21 -19 -132 -8
-132 15 0 34 72 34 127 0 25 7 61 15 81 8 20 19 61 24 92 36 230 205 595 409
884 96 136 417 471 486 506 16 8 34 20 39 26 18 21 124 74 147 74 13 0 41 7
63 14 34 12 44 12 67 0 45 -23 61 -19 56 16 -6 37 -2 37 38 -1 25 -24 36 -29
58 -23 18 4 25 11 22 20 -3 8 -9 21 -12 29 -3 8 -1 15 4 15 13 0 43 -41 37
-50 -5 -8 68 4 96 15 9 3 25 24 35 46 15 34 21 39 41 34 13 -3 23 -1 23 5 0 6
4 9 8 6 4 -2 6 11 4 30 -4 31 -2 34 21 34 14 0 29 -4 32 -10 14 -23 31 -10 27
20 -6 40 16 40 31 0 6 -16 25 -36 42 -44 29 -14 31 -14 43 10 7 13 17 24 23
24 6 0 7 -4 4 -10 -3 -5 -2 -10 2 -10 5 0 17 -6 27 -13 15 -11 17 -17 7 -35
-10 -19 -8 -24 21 -42 47 -28 101 -26 126 4 21 27 26 28 172 27 70 0 108 5
145 19 28 10 78 21 112 25 66 6 61 9 110 -53 19 -23 25 -24 263 -35 29 -2 36
2 38 21 4 24 21 29 40 10 9 -9 17 -7 36 11 15 14 26 19 30 12 12 -19 101 -53
156 -58 l54 -6 -17 26 c-34 53 -9 94 39 62 28 -18 35 -19 31 -3 -6 30 71 20
103 -14 15 -17 23 -19 32 -10 9 9 17 5 35 -15 22 -23 29 -25 78 -19 30 3 56 2
59 -3 3 -5 30 -14 58 -21 29 -6 63 -16 76 -21 41 -17 67 -27 112 -43 25 -9 63
-30 85 -46 22 -16 56 -38 75 -49 138 -77 365 -339 469 -541 18 -36 39 -72 46
-80 14 -16 95 -173 95 -183 0 -3 16 -40 36 -83 48 -105 82 -197 99 -269 7 -33
19 -82 25 -110 6 -27 22 -88 35 -135 34 -126 43 -184 31 -209 -7 -17 -5 -31 9
-56 14 -26 16 -46 12 -86 -4 -28 -11 -57 -17 -64 -8 -10 -4 -14 15 -19 14 -4
25 -12 26 -19 6 -148 3 -257 -7 -284 -7 -18 -9 -35 -5 -38 5 -2 9 -42 9 -87 0
-71 -3 -85 -20 -99 -18 -14 -19 -20 -8 -58 6 -24 8 -50 4 -60 -3 -9 -7 -38 -8
-66 -2 -65 -26 -176 -43 -196 -7 -8 -17 -38 -22 -65 -6 -27 -17 -64 -27 -82
-11 -22 -15 -47 -11 -72 4 -34 2 -39 -18 -44 -21 -5 -49 -3 -112 10 -11 2 -53
37 -93 76 -65 67 -71 76 -65 105 4 23 -2 49 -23 95 -30 65 -75 111 -186 186
-28 19 -53 39 -56 43 -12 18 -93 37 -117 28 -13 -5 -42 -6 -63 -3 -47 8 -91
-2 -87 -19 1 -8 -9 -11 -29 -10 -17 2 -76 -4 -130 -13 -132 -21 -390 -42 -436
-36 -28 3 -44 -1 -71 -22 -18 -14 -38 -26 -44 -26 -5 0 -18 -9 -28 -20 -24
-26 -49 -26 -42 0 3 11 1 22 -3 25 -5 3 -11 -8 -15 -24 -5 -26 -35 -65 -35
-47 0 4 -11 -1 -25 -10 -17 -11 -36 -14 -55 -10 -48 9 -80 -8 -80 -44 0 -18
-6 -33 -15 -36 -8 -4 -15 -12 -15 -20 0 -8 -10 -14 -26 -14 -25 0 -25 -2 -19
-40 7 -41 -1 -50 -24 -27 -10 10 -12 9 -9 -3 2 -8 -3 -15 -9 -16 -7 -1 -17 -2
-23 -3 -5 0 -10 -14 -10 -31 0 -40 -13 -38 -36 5 -24 46 -49 56 -41 17 5 -22
2 -28 -13 -29 -11 -1 -22 2 -25 8 -8 13 -42 11 -83 -3 -26 -10 -36 -10 -39 -2
-3 8 -16 9 -46 2 -23 -5 -49 -7 -59 -5 -9 3 -22 -1 -29 -9 -6 -8 -17 -14 -24
-14 -7 0 -18 -7 -25 -15 -7 -9 -20 -13 -28 -10 -8 3 -21 0 -29 -7 -19 -16
-124 -10 -144 8 -18 16 -66 19 -71 3 -2 -5 -11 -7 -21 -4 -9 4 -14 11 -11 16
3 5 -2 19 -10 31 -9 13 -13 31 -9 46 l6 25 -22 -22 c-12 -12 -30 -21 -38 -19
-19 4 -36 53 -28 86 6 26 0 28 -21 7 -12 -11 -20 -12 -35 -5 -23 13 -25 46 -3
58 13 7 13 13 3 35 -10 21 -17 25 -36 21 l-24 -6 20 33 c21 34 28 69 14 69 -5
0 -20 -14 -34 -32 -24 -28 -29 -30 -43 -18 -9 7 -15 19 -12 27 3 7 -1 13 -9
13 -8 0 -15 -9 -15 -20 0 -11 7 -20 15 -20 19 0 8 -28 -13 -32 -23 -5 -68 41
-87 88 -9 23 -26 44 -42 52 -35 16 -50 1 -29 -29 23 -33 20 -40 -9 -27 -14 6
-25 15 -25 20 0 4 -6 8 -14 8 -8 0 -22 7 -31 16 -30 31 -89 55 -144 60 -30 2
-66 13 -80 23 -27 19 -100 18 -112 -1 -12 -19 -136 -10 -179 12 -8 4 -29 5
-46 3 -18 -3 -35 0 -38 6 -9 13 -48 14 -61 2 -6 -6 -23 -4 -43 5 -27 11 -32
18 -27 34 4 11 2 20 -4 20 -6 0 -11 -4 -11 -8 0 -14 -125 -29 -143 -18 -12 8
-27 4 -57 -13 -45 -25 -89 -22 -54 4 10 8 14 15 7 15 -16 0 -43 -28 -43 -46 0
-8 -4 -14 -10 -14 -5 0 -16 -15 -25 -32 -8 -18 -19 -40 -23 -48 -31 -53 -45
-80 -63 -120 -11 -25 -29 -53 -40 -64 -14 -12 -19 -26 -15 -41 10 -38 -31 -72
-116 -100 -43 -13 -85 -28 -95 -33 -18 -10 -49 9 -36 22 4 3 -1 6 -11 6 -10 0
-16 -6 -14 -17 2 -11 -7 -19 -29 -25 -18 -4 -35 -13 -38 -18 -3 -6 -15 -10
-25 -10 -13 0 -27 -14 -40 -40 -20 -39 -22 -40 -73 -40 -70 0 -85 -15 -46 -47
16 -14 41 -28 56 -32 26 -7 28 -12 31 -62 4 -82 -5 -88 -73 -50 -31 18 -64 31
-72 29 -22 -4 -30 -86 -9 -94 8 -3 12 -12 9 -20 -3 -8 0 -21 7 -29 7 -8 10
-29 8 -47 -6 -35 26 -118 44 -118 5 0 7 7 4 16 -3 8 -2 13 3 10 9 -6 31 59 31
95 0 13 5 31 11 39 8 11 9 3 6 -32 -6 -62 21 -121 67 -149 49 -29 70 -68 105
-194 40 -146 55 -187 98 -265 138 -249 278 -394 493 -508 95 -51 207 -85 376
-113 99 -16 362 -7 429 16 94 31 223 107 290 170 111 104 295 422 361 625 48
147 73 231 80 278 4 24 17 57 30 75 13 18 28 41 33 53 12 28 80 46 163 45 76
-1 123 -23 171 -80 29 -35 28 -33 57 -156 26 -108 79 -236 167 -405 85 -163
152 -259 239 -345 112 -110 140 -128 244 -159 133 -40 143 -41 350 -41 171 0
191 2 270 27 298 92 474 227 628 482 56 91 90 190 118 334 14 75 34 162 45
192 23 66 80 127 132 141 41 11 77 5 77 -14 0 -7 7 -55 15 -107 12 -78 22
-111 52 -168 5 -10 64 35 69 53 3 11 13 35 21 54 16 36 32 142 33 224 0 58
-13 65 -78 44 -26 -8 -50 -13 -54 -11 -11 7 2 100 22 161 l20 58 -32 29 c-25
23 -37 27 -64 23 -43 -7 -50 5 -24 41 24 32 47 174 58 357 18 291 1 957 -25
998 -4 6 -8 39 -9 72 0 33 -6 85 -12 115 -6 30 -15 78 -21 105 -30 161 -94
374 -123 412 -6 7 -7 17 -3 23 14 22 -78 210 -223 457 -76 130 -115 188 -214
320 -38 50 -326 328 -388 374 -19 14 -53 35 -75 47 -22 11 -67 41 -100 66 -33
26 -71 49 -85 53 -14 3 -46 20 -71 38 -25 18 -57 36 -70 40 -13 4 -32 14 -41
22 -9 8 -35 19 -58 24 -23 5 -54 18 -69 29 -14 12 -45 23 -66 27 -22 3 -53 17
-68 30 -16 12 -39 23 -52 23 -13 0 -26 4 -29 8 -3 5 -38 15 -78 22 -40 7 -82
18 -93 25 -11 6 -69 17 -129 24 -61 7 -118 17 -127 22 -20 10 -58 10 -144 -2z
m-2014 -3907 c-6 -2 -14 -22 -17 -44 -4 -22 -13 -42 -20 -45 -7 -2 -16 -18
-19 -34 -4 -16 -11 -29 -16 -29 -16 0 -9 -73 11 -116 14 -28 29 -44 47 -49 24
-6 25 -7 7 -20 -18 -14 -18 -15 3 -21 18 -5 22 -11 17 -29 -9 -38 22 -47 86
-25 33 11 59 15 64 10 6 -6 14 -6 20 -1 13 11 261 -30 323 -53 67 -25 241 -15
318 18 60 25 148 35 159 17 10 -16 57 -22 73 -9 9 7 29 11 46 9 17 -1 54 5 82
14 75 26 133 13 126 -29 -5 -28 12 -46 45 -46 l34 0 0 -57 c0 -284 -212 -616
-458 -717 -192 -79 -481 -95 -664 -36 -150 49 -243 103 -334 196 -95 97 -137
163 -194 307 -58 147 -70 197 -76 322 -11 209 33 372 108 398 10 3 24 22 32
42 16 37 47 55 96 55 16 0 32 -4 35 -10 10 -16 35 -11 35 7 0 14 2 14 21 -3
11 -10 16 -20 10 -22z m3939 -144 c5 -13 19 -67 31 -121 30 -136 22 -248 -29
-418 -45 -148 -94 -229 -210 -347 -91 -94 -157 -137 -272 -179 -125 -45 -156
-52 -276 -64 -219 -22 -447 38 -585 155 -132 112 -252 343 -281 544 -13 86 -5
148 15 121 9 -11 19 -14 40 -8 16 4 39 4 52 -1 12 -5 26 -5 31 -1 5 4 36 16
70 25 47 14 66 16 82 7 11 -6 30 -11 41 -11 22 0 81 -31 81 -43 0 -5 6 -5 12
-1 21 13 47 11 52 -3 6 -14 67 -18 80 -6 4 4 -3 15 -16 25 -20 16 -21 20 -7
31 8 6 18 20 22 29 7 20 37 14 37 -8 0 -24 80 -37 214 -35 l130 2 42 34 c24
20 47 50 54 70 13 39 30 38 30 -1 0 -19 5 -24 25 -24 31 0 105 -29 105 -41 0
-13 64 -11 78 3 9 9 20 9 49 0 77 -24 75 -24 154 50 21 20 39 42 39 48 0 7 12
10 28 8 20 -2 26 1 23 12 -3 8 -4 30 -4 48 1 24 -3 32 -15 32 -16 1 -16 1 0
11 21 12 12 43 -10 34 -12 -4 -11 -1 3 15 11 12 27 19 37 17 10 -3 18 -1 18 4
0 18 21 9 30 -13z"/>
<path d="M4022 3017 c-7 -8 -7 -18 -2 -27 6 -8 10 -27 10 -42 0 -18 11 -37 30
-55 17 -14 30 -31 30 -37 0 -6 30 -24 65 -41 62 -28 85 -49 48 -44 -10 2 -28
-1 -40 -5 -13 -4 -32 -2 -44 4 -12 7 -24 8 -28 4 -3 -5 -26 -10 -51 -10 -25
-1 -60 -5 -78 -9 -20 -5 -44 -2 -63 6 -27 11 -33 10 -43 -2 -7 -10 -31 -16
-66 -18 -30 -1 -64 -8 -75 -15 -11 -6 -43 -11 -72 -9 -29 1 -55 -2 -58 -7 -7
-12 -74 0 -102 18 -16 10 -21 21 -18 36 7 27 -16 90 -35 96 -8 3 -46 4 -85 4
-92 -2 -142 -25 -227 -106 -36 -34 -97 -88 -134 -118 -37 -30 -87 -74 -111
-97 -70 -69 -88 -75 -214 -69 -60 2 -111 1 -114 -4 -7 -11 -64 5 -148 42 -63
27 -91 50 -149 121 -44 55 -101 107 -117 108 -27 2 -46 -3 -52 -13 -5 -9 -17
-63 -21 -98 0 -3 -8 -21 -19 -41 -19 -39 -54 -55 -77 -37 -10 9 -27 7 -68 -7
-52 -18 -57 -18 -102 -2 -26 10 -55 17 -64 17 -10 0 -18 6 -18 13 0 10 -16 14
-62 13 -35 -1 -69 -5 -76 -9 -8 -5 -19 -3 -29 4 -9 8 -21 14 -27 15 -6 0 -17
2 -25 2 -7 1 -11 8 -8 16 8 19 -12 34 -54 42 -19 4 -39 11 -45 15 -20 16 -3
55 47 110 43 48 68 93 58 104 -9 8 -82 -25 -146 -67 -37 -24 -99 -62 -138 -84
-83 -46 -162 -122 -170 -164 -15 -77 -15 -91 -4 -111 6 -13 11 -37 11 -54 -2
-44 28 -96 51 -89 17 5 18 1 12 -43 -10 -79 -15 -93 -30 -93 -18 0 -43 37 -51
75 -3 19 -17 38 -35 50 -19 13 -29 29 -29 45 -1 44 -121 177 -134 148 -3 -7
-4 0 -3 15 2 27 -3 31 -66 56 -37 15 -74 37 -83 50 -9 13 -25 21 -37 20 -35
-3 -83 23 -79 43 3 15 -1 16 -20 9 -17 -6 -22 -16 -21 -35 1 -18 -2 -24 -10
-19 -7 4 -6 0 2 -10 7 -9 11 -26 8 -37 -3 -11 -2 -20 3 -20 8 0 20 -47 23 -93
1 -15 8 -32 16 -36 8 -5 11 -16 8 -24 -6 -17 13 -67 26 -67 4 0 7 -7 7 -15 0
-9 10 -20 22 -25 13 -5 17 -9 11 -9 -18 -1 -16 -38 2 -45 8 -3 15 -16 15 -29
0 -14 7 -30 15 -37 8 -7 12 -17 9 -22 -4 -5 8 -30 26 -54 17 -24 29 -48 25
-53 -3 -5 0 -13 6 -16 6 -4 8 -18 5 -31 -7 -28 2 -31 19 -7 19 26 37 6 29 -33
-4 -21 -2 -34 4 -34 6 0 14 -9 17 -21 4 -11 13 -18 20 -15 21 8 27 -24 10 -50
-14 -22 -14 -25 3 -42 14 -14 22 -16 35 -8 21 13 33 1 18 -18 -13 -16 -5 -66
11 -66 6 0 6 -6 -1 -14 -14 -17 -3 -26 42 -35 20 -4 36 -17 48 -39 9 -19 25
-42 35 -53 9 -10 14 -22 11 -26 -10 -10 24 -43 44 -43 11 0 19 -9 21 -22 2
-15 11 -24 26 -26 17 -3 22 -10 22 -32 0 -22 7 -32 28 -42 15 -7 34 -28 42
-45 10 -22 22 -33 38 -33 15 0 22 -6 22 -20 0 -30 27 -78 51 -90 13 -7 18 -17
15 -27 -4 -9 2 -24 14 -35 31 -29 26 -69 -13 -94 -107 -70 -147 -95 -192 -116
-27 -13 -88 -53 -135 -89 -47 -35 -98 -70 -115 -76 -114 -42 -149 -59 -181
-83 -40 -33 -177 -85 -249 -96 -27 -4 -72 -17 -100 -30 -27 -13 -60 -24 -71
-24 -12 0 -55 -22 -96 -49 -85 -55 -129 -77 -176 -86 l-32 -7 0 -194 0 -194
154 0 c114 0 156 3 160 13 5 9 7 9 12 0 4 -10 108 -13 469 -13 l463 0 -14 63
c-7 34 -23 130 -34 213 -24 182 -17 309 25 427 15 39 34 99 43 132 23 80 76
138 123 133 23 -2 37 -10 45 -26 6 -13 17 -29 23 -35 6 -6 11 -20 11 -32 0
-11 11 -32 24 -46 28 -30 66 -101 66 -123 0 -8 10 -25 23 -36 12 -12 22 -29
22 -38 0 -11 10 -18 25 -21 31 -4 42 -19 35 -49 -4 -15 0 -24 10 -28 8 -4 15
-12 15 -19 0 -17 33 -25 54 -13 12 7 18 4 22 -9 24 -70 41 -88 75 -81 9 2 15
-7 17 -23 4 -32 58 -93 76 -86 15 6 46 -23 65 -60 6 -13 17 -23 24 -23 19 -1
54 -34 62 -59 4 -13 37 -54 75 -92 l67 -69 830 0 c606 0 839 3 863 12 26 9 35
9 38 0 2 -8 44 -12 137 -12 l133 0 12 88 c6 48 18 108 26 133 7 25 16 74 19
109 4 35 8 67 11 71 5 9 14 212 15 349 0 104 -3 151 -20 250 -6 36 -9 75 -6
85 7 35 36 139 38 142 3 2 165 -74 244 -115 51 -27 133 -106 133 -129 0 -37
74 -160 129 -218 42 -43 48 -92 42 -321 -4 -122 -16 -205 -32 -215 -7 -4 -9
-16 -6 -28 3 -13 -1 -25 -11 -31 -10 -5 -14 -10 -10 -10 4 0 2 -15 -3 -32 -15
-50 -21 -70 -26 -101 l-5 -27 966 0 966 0 0 390 0 390 -57 -7 c-119 -15 -240
-3 -293 28 -19 10 -63 14 -176 14 -109 0 -155 4 -167 13 -11 9 -45 12 -119 10
-82 -2 -112 1 -148 16 -27 11 -77 20 -127 22 -46 2 -91 8 -102 14 -11 5 -30
10 -43 10 -13 0 -33 7 -44 15 -10 8 -27 15 -37 15 -11 0 -30 9 -44 20 -14 11
-33 20 -42 20 -9 0 -25 6 -36 14 -11 7 -54 17 -95 20 -76 8 -160 32 -160 47 0
4 -60 37 -134 73 -74 36 -137 70 -141 76 -10 16 -131 92 -182 114 -23 10 -68
24 -100 30 -57 12 -58 12 -61 49 -2 27 1 39 12 43 9 3 16 15 16 25 0 10 7 19
15 19 8 0 15 5 15 10 0 6 6 10 14 10 9 0 16 12 18 33 2 24 8 33 26 35 12 2 22
10 22 18 0 8 5 14 11 14 6 0 8 7 5 16 -9 22 16 55 34 44 19 -12 38 28 33 66
-4 26 -1 31 31 44 35 13 46 33 26 45 -17 10 -12 38 5 31 9 -3 18 1 21 9 4 8
10 13 15 10 14 -9 27 28 23 67 -3 34 -1 37 24 35 21 -2 28 3 30 22 2 14 0 21
-6 17 -6 -4 -13 -2 -17 4 -3 5 3 10 14 10 16 0 21 6 21 25 0 14 5 25 10 25 6
0 10 7 10 15 0 16 15 53 70 170 71 149 128 373 137 531 l3 71 -25 -5 c-29 -5
-30 -8 -10 -29 19 -19 11 -31 -9 -14 -16 14 -69 4 -60 -11 8 -13 -17 -59 -30
-55 -6 2 -9 21 -8 43 3 38 -19 100 -31 88 -3 -4 -21 -1 -38 5 -23 8 -35 8 -39
1 -4 -6 -14 -8 -23 -4 -26 10 -107 -18 -128 -45 -14 -18 -16 -28 -8 -43 16
-30 21 -58 21 -126 -1 -65 -17 -132 -33 -132 -5 0 -9 -7 -9 -15 0 -8 -4 -15
-10 -15 -5 0 -10 -6 -10 -14 0 -8 -19 -50 -42 -93 -23 -43 -47 -88 -53 -101
-12 -22 -13 -22 -29 13 -21 44 -38 46 -29 3 l6 -33 -35 31 c-20 18 -42 34 -49
36 -20 7 6 79 53 150 21 31 38 61 38 67 0 5 11 18 25 29 17 14 25 30 25 51 0
16 7 51 16 77 8 25 13 57 10 70 -14 53 -136 140 -226 159 -19 4 -48 13 -65 20
-33 15 -145 50 -186 59 -16 3 -31 1 -37 -7z m110 -609 c22 -6 48 -24 59 -40
25 -34 39 -36 39 -4 0 47 26 36 54 -24 26 -55 27 -59 12 -88 -10 -19 -12 -33
-6 -37 6 -3 10 -15 10 -27 0 -18 2 -19 18 -7 9 7 14 10 11 6 -4 -5 -3 -24 1
-44 10 -43 5 -59 -22 -66 -14 -4 -19 -11 -15 -21 5 -12 0 -16 -18 -16 -14 0
-25 6 -25 13 -1 15 -35 57 -48 57 -5 0 -24 -24 -41 -52 -28 -45 -31 -55 -21
-72 10 -16 10 -22 -3 -31 -11 -8 -13 -16 -6 -26 5 -8 9 -27 9 -44 l-1 -30 -17
28 c-17 27 -49 43 -73 35 -16 -5 -42 -77 -43 -122 -1 -36 -4 -41 -32 -48 -59
-15 -61 -32 -16 -121 2 -4 -7 -7 -19 -6 -48 4 -57 0 -52 -22 4 -13 0 -26 -9
-33 -9 -7 -14 -26 -14 -50 1 -34 -3 -40 -39 -60 -22 -11 -42 -22 -44 -23 -2
-2 2 -9 8 -17 10 -12 9 -17 -8 -28 -12 -7 -21 -18 -21 -25 0 -7 -4 -13 -10
-13 -5 0 -10 -9 -10 -19 0 -11 -4 -22 -8 -25 -5 -3 -7 -19 -4 -36 2 -16 -1
-37 -8 -45 -10 -12 -10 -18 0 -30 17 -20 -11 -53 -49 -57 -14 -2 -26 -7 -26
-13 -1 -21 -47 -105 -58 -105 -7 0 -19 5 -27 10 -11 7 -20 4 -33 -13 -17 -22
-17 -22 -35 -2 -9 11 -30 21 -45 21 l-29 2 25 -27 c22 -23 45 -91 31 -91 -18
0 -43 24 -52 50 -16 45 -47 39 -57 -11 -6 -32 -9 -32 -49 -8 -20 12 -39 19
-43 16 -3 -3 9 -25 26 -48 35 -49 32 -69 -4 -24 -25 32 -44 30 -26 -3 17 -32
14 -47 -5 -31 -9 7 -39 13 -67 14 -47 1 -49 0 -29 -13 32 -21 27 -32 -13 -32
-23 0 -33 -4 -30 -13 3 -7 23 -11 53 -10 61 2 68 -3 74 -53 8 -59 -4 -75 -36
-45 -21 20 -28 22 -41 11 -17 -14 -21 0 -4 17 12 12 4 33 -12 33 -5 0 -9 -7
-9 -15 0 -8 -4 -15 -10 -15 -5 0 -10 5 -10 10 0 6 -9 10 -21 10 -20 0 -20 0
-1 -25 11 -14 18 -34 15 -44 -3 -11 2 -30 11 -43 20 -28 20 -38 2 -38 -18 0
-76 66 -76 85 0 8 -3 15 -7 15 -5 0 -9 19 -11 42 -1 22 -5 45 -8 50 -8 13 -24
-1 -24 -23 0 -10 -4 -19 -10 -19 -5 0 -7 7 -4 15 4 8 1 15 -4 15 -16 0 -26
-40 -13 -53 6 -6 11 -21 11 -34 0 -13 7 -26 15 -29 8 -4 12 -11 8 -17 -4 -6 0
-8 10 -4 10 3 17 2 17 -3 0 -17 -42 -11 -59 8 -9 9 -28 19 -43 20 -24 3 -28 0
-28 -22 0 -14 -4 -26 -8 -26 -16 0 -47 28 -39 36 4 4 -3 18 -15 32 -22 22 -22
24 -5 36 21 16 22 42 2 50 -8 3 -15 12 -15 20 0 10 6 13 15 10 9 -4 15 0 15 9
0 22 -20 32 -31 16 -4 -7 -12 -10 -16 -5 -4 5 -2 11 5 13 14 5 16 33 2 33 -5
0 -10 -5 -10 -10 0 -7 -6 -7 -20 0 -18 10 -20 8 -20 -24 0 -40 -15 -56 -25
-26 -11 34 -22 22 -29 -30 -6 -42 -3 -57 17 -93 17 -31 22 -51 18 -77 -5 -32
-8 -35 -26 -25 -11 5 -20 19 -20 30 0 13 -8 21 -24 23 -14 2 -21 0 -17 -7 4
-6 -6 -3 -23 6 -16 10 -26 22 -23 28 14 21 28 72 24 85 -3 9 -10 6 -23 -11
-18 -22 -20 -23 -33 -6 -19 24 -27 21 -20 -8 5 -19 2 -25 -10 -25 -13 0 -15
-4 -8 -18 14 -26 23 -142 12 -142 -6 0 -10 9 -10 20 0 11 -7 20 -15 20 -8 0
-15 7 -15 14 0 8 -11 27 -24 41 -14 15 -26 39 -28 53 -4 36 -22 35 -26 -1 l-3
-28 -26 25 c-14 14 -32 26 -39 26 -8 0 -14 4 -14 9 0 18 12 41 22 41 11 0 78
69 78 81 0 14 -27 10 -40 -6 -7 -8 -20 -15 -28 -15 -12 0 -13 3 -4 12 7 7 12
18 12 26 0 15 24 42 38 42 6 0 13 7 16 16 5 13 2 15 -14 11 -13 -3 -23 0 -27
9 -3 8 -11 14 -19 14 -13 0 -16 -7 -13 -26 1 -8 -22 -24 -34 -24 -4 0 -4 12
-1 26 5 21 4 25 -7 20 -8 -3 -22 -9 -31 -12 -13 -4 -16 -13 -12 -29 4 -18 -2
-29 -30 -50 -19 -15 -40 -24 -46 -20 -5 3 -10 -1 -10 -9 0 -11 -10 -16 -30
-16 l-30 0 15 37 c10 23 12 40 6 46 -5 5 -7 16 -4 23 3 8 -1 14 -11 14 -9 0
-16 -5 -16 -12 0 -22 -33 -48 -62 -48 -30 0 -35 10 -16 39 16 25 5 48 -36 72
-20 12 -33 26 -30 33 6 16 -43 28 -52 14 -4 -6 -18 2 -31 16 -17 18 -31 25
-44 21 -26 -8 -25 16 1 40 11 10 20 23 20 28 0 6 7 19 17 29 15 17 14 18 -15
24 -35 7 -42 28 -14 39 15 6 14 8 -8 20 -26 14 -45 11 -35 -6 4 -5 -3 -9 -14
-9 -18 0 -20 4 -14 33 3 17 10 38 16 45 7 8 5 12 -6 12 -9 0 -19 -4 -22 -10
-7 -11 -48 -14 -58 -3 -4 3 -2 12 4 19 13 16 -11 30 -35 21 -10 -4 -13 -1 -9
9 3 7 8 14 12 14 5 0 16 16 27 35 18 35 18 35 -4 51 -14 9 -22 26 -22 43 0 15
-9 47 -21 70 -11 24 -23 59 -26 77 -3 19 -8 34 -12 34 -11 0 -61 -37 -74 -54
-12 -16 -16 -17 -34 -5 -17 10 -19 17 -12 36 10 26 2 53 -20 69 -8 6 -12 18
-8 27 3 8 -1 21 -9 27 -8 7 -14 21 -14 31 0 10 -4 21 -10 24 -5 3 -10 17 -10
31 0 17 -5 24 -20 24 -31 0 -60 39 -60 81 0 21 -4 40 -10 44 -13 8 -1 35 17
35 8 0 11 -4 8 -10 -3 -5 -4 -10 -1 -10 2 0 11 -3 20 -6 12 -5 16 0 16 18 0
13 7 33 15 44 19 25 19 54 0 54 -8 0 -15 5 -15 12 0 20 42 58 65 58 11 0 31 7
43 16 30 21 58 13 113 -31 181 -145 267 -205 293 -205 8 0 16 -5 18 -11 2 -6
23 -12 46 -13 25 -1 47 -8 52 -17 5 -7 17 -15 27 -16 48 -6 81 -18 106 -39 16
-13 36 -24 46 -24 9 0 26 -6 37 -14 11 -8 42 -17 69 -21 28 -4 59 -12 70 -18
22 -12 75 -10 89 3 5 5 -2 14 -18 21 -15 7 -25 18 -22 26 3 7 -1 13 -9 13 -8
0 -15 5 -15 10 0 6 9 10 19 10 23 0 35 15 26 31 -5 7 -14 4 -26 -7 -19 -17
-21 -17 -48 -1 -16 9 -36 17 -44 17 -29 0 -65 40 -72 80 -4 22 -11 42 -15 45
-5 3 -21 -12 -36 -32 -36 -50 -53 -63 -80 -63 -27 0 -41 17 -63 77 -12 35 -22
48 -37 48 -10 0 -29 6 -41 13 -13 7 -23 9 -23 5 0 -4 -9 10 -19 31 -18 34 -25
66 -22 89 1 11 52 -23 78 -53 l22 -25 1 26 c0 47 22 54 93 34 34 -11 73 -26
86 -34 16 -10 45 -14 92 -13 37 1 71 -3 74 -8 3 -6 14 -10 24 -10 10 0 24 -7
31 -15 7 -8 21 -15 31 -15 11 0 19 7 19 15 0 18 1 18 35 1 16 -8 60 -20 99
-26 39 -6 91 -16 114 -21 26 -6 49 -6 55 -1 13 10 86 33 164 53 44 11 57 10
78 -1 21 -11 30 -11 43 -2 40 28 81 42 145 51 38 5 74 14 80 20 22 18 109 43
131 37 13 -3 34 3 51 14 36 24 45 25 45 5 0 -29 -30 -75 -49 -75 -21 0 -44
-43 -56 -100 -17 -85 -64 -104 -121 -49 l-33 32 -16 -39 c-20 -49 -50 -81 -83
-89 -20 -5 -23 -8 -12 -15 29 -18 0 -22 -35 -5 -20 9 -38 15 -39 13 -1 -1 -10
-15 -19 -30 -28 -46 -72 -61 -167 -59 -47 2 -91 7 -98 13 -9 8 -17 7 -30 -5
-9 -8 -26 -17 -36 -18 -11 -2 -21 -10 -24 -18 -4 -11 4 -13 36 -9 31 5 39 3
35 -7 -7 -19 38 -46 65 -38 12 3 22 13 22 22 0 19 37 38 63 33 14 -3 15 -7 7
-17 -16 -20 6 -24 80 -14 84 11 134 27 193 61 26 15 50 28 53 28 8 0 78 54 82
63 2 4 9 7 15 7 7 0 18 9 25 20 7 11 19 20 26 20 17 0 72 29 96 50 51 46 72
60 89 60 10 0 24 7 31 15 7 8 21 15 31 15 11 0 28 9 38 19 11 11 22 17 24 15
3 -3 30 18 61 46 126 118 225 187 285 199 2 1 21 -4 43 -11z m-1195 -140 c7
-6 10 -15 6 -21 -4 -7 5 -8 28 -3 l33 6 -24 -22 c-24 -23 -50 -26 -127 -15
-20 3 -37 -1 -44 -9 -15 -18 -29 -18 -29 0 0 12 -7 12 -37 3 -21 -6 -53 -19
-71 -29 -41 -22 -51 -22 -79 1 -27 22 -29 31 -9 31 8 0 22 8 32 18 27 26 84
40 143 32 40 -5 54 -3 60 8 6 10 10 11 15 3 11 -17 29 -13 22 5 -5 14 -1 15
31 9 21 -4 44 -11 50 -17z m-1732 -16 c24 -21 45 -65 45 -96 0 -15 7 -26 20
-29 23 -6 27 -37 5 -37 -25 0 -17 -17 12 -25 27 -6 27 -7 9 -20 -11 -8 -16
-21 -13 -30 4 -10 0 -15 -12 -15 -14 0 -20 10 -24 41 -6 43 -17 62 -24 42 -3
-7 -14 -23 -24 -35 l-20 -23 6 36 c4 28 2 38 -10 43 -12 4 -15 22 -15 79 0 91
7 102 45 69z"/>
<path d="M2897 1319 c-16 -4 -35 -13 -43 -20 -11 -9 -18 -10 -22 -2 -4 6 -26
10 -48 9 -30 -1 -50 -10 -73 -32 -17 -16 -36 -29 -41 -29 -11 0 -11 -11 1 -43
5 -12 8 -26 8 -30 -3 -21 3 -23 21 -7 11 10 23 15 26 12 4 -3 14 -2 24 3 15 8
19 3 30 -34 16 -59 64 -83 100 -51 10 9 40 18 68 22 31 3 49 10 45 16 -4 6 4
8 21 5 17 -3 34 1 48 13 11 11 25 19 30 19 5 0 13 12 18 26 6 14 19 28 30 31
24 6 26 19 4 27 -8 3 -12 11 -9 16 14 23 -17 40 -74 40 -31 1 -74 4 -96 9 -22
4 -53 4 -68 0z"/>
</g>
</svg>
